# xmcd
#
# Track frame offsets:
#	150
#	20460
#	39987
#	62770
#	81967
#	101275
#	121997
#	141412
#	159995
#	181397
#
# Disc length: 2712 seconds
#
# Revision: 1
# Processed by: cddbd v1.5PL3 Copyright (c) Steve Scherf et al.
# Submitted via: EasyCDDAExtractor 7.0.5.4
#
DISCID=7b0a960a
DTITLE=Private Eye - Desperado
DYEAR=1990
DGENRE=Pop
TTITLE0=So Suspicious
TTITLE1=Addicted To You
TTITLE2=Bakersfield Blues
TTITLE3=Face Down Loser
TTITLE4=Final Call
TTITLE5=If This Is Love
TTITLE6=New York Skyline
TTITLE7=Second City
TTITLE8=Still Waters
TTITLE9=After The Fire
EXTD=
EXTT0=
EXTT1=
EXTT2=
EXTT3=
EXTT4=
EXTT5=
EXTT6=
EXTT7=
EXTT8=
EXTT9=
PLAYORDER=
